<svg width="32" height="32" viewBox="0 0 32 32" fill="none" xmlns="http://www.w3.org/2000/svg">
<g clip-path="url(#clip0_512_373)">
<path d="M28.8782 19.4508C26.9727 26.5624 19.6609 30.7838 12.5493 28.8783C5.43768 26.9727 1.21625 19.661 3.1218 12.5493C5.02736 5.43772 12.3391 1.21629 19.4507 3.12185C26.5623 5.0274 30.7838 12.3391 28.8782 19.4508Z" fill="#E6AC39"/>
<path d="M9.76587 21.2323L13.2172 8.35168L18.4984 9.76678C20.0487 10.1822 21.1445 10.7967 21.7858 11.6104C22.427 12.4241 22.5924 13.4105 22.2831 14.5648C22.1142 15.1951 21.8029 15.7095 21.3554 16.1047C20.9055 16.4992 20.3625 16.729 19.73 16.8002C20.3398 17.1422 20.7655 17.6108 21.007 18.2165C21.2521 18.8179 21.2792 19.48 21.0845 20.2068C20.7532 21.4432 20.1103 22.2778 19.1553 22.7026C18.1972 23.1291 16.9949 23.1538 15.5397 22.7794L9.76587 21.2323ZM14.413 14.1953L17.2215 14.9478C18.5585 15.2802 19.3609 14.9517 19.6404 13.9085C19.797 13.3241 19.7405 12.8586 19.471 12.5121C19.204 12.1661 18.7076 11.8934 17.9808 11.6986L15.2762 10.9739L14.413 14.1953ZM13.8954 16.1272L12.8601 19.9909L15.9801 20.8268C16.5983 20.9925 18.0918 21.0692 18.4613 19.6903C18.8307 18.3114 18.322 17.3314 17.1143 16.9897L13.8954 16.1272Z" fill="#FFF8E1"/>
<path d="M15.6667 6.9375L17.5986 7.45514L16.7354 10.6765L14.8036 10.1589L15.6667 6.9375ZM18.8881 7.80066L20.82 8.3183L19.9568 11.5397L18.0249 11.022L18.8881 7.80066ZM12.0433 20.4605L13.9751 20.9781L13.112 24.1995L11.1801 23.6818L12.0433 20.4605ZM15.2646 21.3236L17.1965 21.8413L16.3333 25.0626L14.4015 24.545L15.2646 21.3236Z" fill="#FFF8E1"/>
</g>
<defs>
<clipPath id="clip0_512_373">
<rect width="32" height="32" fill="white"/>
</clipPath>
</defs>
</svg>
