<svg width="13" height="16" viewBox="0 0 13 16" fill="none" xmlns="http://www.w3.org/2000/svg">
<path d="M4.75 12.5C4.3375 12.5 3.9845 12.3533 3.691 12.0597C3.3975 11.7662 3.2505 11.413 3.25 11V2C3.25 1.5875 3.397 1.2345 3.691 0.941C3.985 0.6475 4.338 0.5005 4.75 0.5H11.5C11.9125 0.5 12.2657 0.647 12.5597 0.941C12.8537 1.235 13.0005 1.588 13 2V11C13 11.4125 12.8532 11.7657 12.5597 12.0597C12.2662 12.3538 11.913 12.5005 11.5 12.5H4.75ZM4.75 11H11.5V2H4.75V11ZM1.75 15.5C1.3375 15.5 0.9845 15.3533 0.691 15.0597C0.3975 14.7662 0.2505 14.413 0.25 14V4.25C0.25 4.0375 0.322 3.8595 0.466 3.716C0.61 3.5725 0.788 3.5005 1 3.5C1.212 3.4995 1.39025 3.5715 1.53475 3.716C1.67925 3.8605 1.751 4.0385 1.75 4.25V14H9.25C9.4625 14 9.64075 14.072 9.78475 14.216C9.92875 14.36 10.0005 14.538 10 14.75C9.9995 14.962 9.9275 15.1402 9.784 15.2847C9.6405 15.4292 9.4625 15.501 9.25 15.5H1.75Z" fill="white"/>
</svg>
