<svg width="16" height="15" viewBox="0 0 16 15" fill="none" xmlns="http://www.w3.org/2000/svg">
<path d="M8 14.2438C7.825 14.2438 7.647 14.2126 7.466 14.15C7.285 14.0875 7.1255 13.9875 6.9875 13.85L5.69375 12.6688C4.36875 11.4563 3.17175 10.2533 2.10275 9.0598C1.03375 7.8663 0.4995 6.55055 0.5 5.11255C0.5 3.93755 0.89375 2.9563 1.68125 2.1688C2.46875 1.3813 3.45 0.987549 4.625 0.987549C5.2875 0.987549 5.9125 1.12805 6.5 1.40905C7.0875 1.69005 7.5875 2.07455 8 2.56255C8.4125 2.07505 8.9125 1.6908 9.5 1.4098C10.0875 1.1288 10.7125 0.988049 11.375 0.987549C12.55 0.987549 13.5312 1.3813 14.3187 2.1688C15.1062 2.9563 15.5 3.93755 15.5 5.11255C15.5 6.55005 14.9688 7.8688 13.9062 9.0688C12.8438 10.2688 11.6375 11.475 10.2875 12.6875L9.0125 13.85C8.875 13.9875 8.71575 14.0875 8.53475 14.15C8.35375 14.2126 8.1755 14.2438 8 14.2438ZM7.2875 4.06255C6.925 3.55005 6.5375 3.1593 6.125 2.8903C5.7125 2.6213 5.2125 2.48705 4.625 2.48755C3.875 2.48755 3.25 2.73755 2.75 3.23755C2.25 3.73755 2 4.36255 2 5.11255C2 5.76255 2.23125 6.4533 2.69375 7.1848C3.15625 7.9163 3.7095 8.62555 4.3535 9.31255C4.9975 9.99955 5.66 10.6433 6.341 11.2438C7.022 11.8443 7.575 12.338 8 12.725C8.425 12.3375 8.97825 11.8438 9.65975 11.2438C10.3413 10.6438 11.0038 10 11.6473 9.31255C12.2908 8.62505 12.8438 7.9158 13.3063 7.1848C13.7688 6.4538 14 5.76305 14 5.11255C14 4.36255 13.75 3.73755 13.25 3.23755C12.75 2.73755 12.125 2.48755 11.375 2.48755C10.7875 2.48755 10.2875 2.62205 9.875 2.89105C9.4625 3.16005 9.075 3.55055 8.7125 4.06255C8.625 4.18755 8.51875 4.2813 8.39375 4.3438C8.26875 4.4063 8.1375 4.43755 8 4.43755C7.8625 4.43755 7.73125 4.4063 7.60625 4.3438C7.48125 4.2813 7.375 4.18755 7.2875 4.06255Z" fill="white"/>
</svg>
