<svg width="32" height="32" viewBox="0 0 32 32" fill="none" xmlns="http://www.w3.org/2000/svg">
<path d="M18.75 31.5C18.125 31.5 17.594 31.2815 17.157 30.8445C16.72 30.4075 16.501 29.876 16.5 29.25V18.75C16.5 18.125 16.719 17.594 17.157 17.157C17.595 16.72 18.126 16.501 18.75 16.5H29.25C29.875 16.5 30.4065 16.719 30.8445 17.157C31.2825 17.595 31.501 18.126 31.5 18.75V29.25C31.5 29.875 31.2815 30.4065 30.8445 30.8445C30.4075 31.2825 29.876 31.501 29.25 31.5H18.75ZM13.5 23.1375V30H12.8625C12.1875 30 11.669 29.775 11.307 29.325C10.945 28.875 10.7135 28.325 10.6125 27.675L10.275 25.2C9.94997 25.075 9.64397 24.925 9.35697 24.75C9.06997 24.575 8.78847 24.3875 8.51247 24.1875L6.18747 25.1625C5.56247 25.4375 4.93747 25.4625 4.31247 25.2375C3.68747 25.0125 3.19997 24.6125 2.84997 24.0375L1.08747 20.9625C0.73747 20.3875 0.637471 19.775 0.787471 19.125C0.937471 18.475 1.27497 17.9375 1.79997 17.5125L3.78747 16.0125C3.76247 15.8375 3.74997 15.6685 3.74997 15.5055V14.493C3.74997 14.331 3.76247 14.1625 3.78747 13.9875L1.79997 12.4875C1.27497 12.0625 0.937471 11.525 0.787471 10.875C0.637471 10.225 0.73747 9.6125 1.08747 9.0375L2.84997 5.9625C3.19997 5.3875 3.68747 4.9875 4.31247 4.7625C4.93747 4.5375 5.56247 4.5625 6.18747 4.8375L8.51247 5.8125C8.78747 5.6125 9.07497 5.425 9.37497 5.25C9.67497 5.075 9.97497 4.925 10.275 4.8L10.6125 2.325C10.7125 1.675 11.0065 1.125 11.4945 0.675C11.9825 0.225 12.5635 0 13.2375 0H16.7625C17.4375 0 18.019 0.225 18.507 0.675C18.995 1.125 19.2885 1.675 19.3875 2.325L19.725 4.8C20.05 4.925 20.3565 5.075 20.6445 5.25C20.9325 5.425 21.2135 5.6125 21.4875 5.8125L23.8125 4.8375C24.4375 4.5625 25.0625 4.5375 25.6875 4.7625C26.3125 4.9875 26.8 5.3875 27.15 5.9625L28.9125 9.0375C29.2625 9.6125 29.3625 10.2315 29.2125 10.8945C29.0625 11.5575 28.725 12.0885 28.2 12.4875L27.3 13.1625C26.95 13.4125 26.5815 13.5125 26.1945 13.4625C25.8075 13.4125 25.476 13.225 25.2 12.9C24.924 12.575 24.8115 12.2125 24.8625 11.8125C24.9135 11.4125 25.101 11.075 25.425 10.8L26.1375 10.275L24.675 7.725L20.9625 9.3C20.4125 8.725 19.806 8.244 19.143 7.857C18.48 7.47 17.7615 7.176 16.9875 6.975L16.5 3H13.5375L13.0125 6.975C12.2375 7.175 11.519 7.469 10.857 7.857C10.195 8.245 9.58847 8.7135 9.03747 9.2625L5.32497 7.725L3.86247 10.275L7.08747 12.675C6.96247 13.05 6.87497 13.425 6.82497 13.8C6.77497 14.175 6.74997 14.575 6.74997 15C6.74997 15.4 6.77497 15.7875 6.82497 16.1625C6.87497 16.5375 6.96247 16.9125 7.08747 17.2875L3.86247 19.725L5.32497 22.275L9.03747 20.7C9.63747 21.325 10.319 21.844 11.082 22.257C11.845 22.67 12.651 22.9635 13.5 23.1375ZM15.075 9.75C13.625 9.75 12.3875 10.2565 11.3625 11.2695C10.3375 12.2825 9.82497 13.526 9.82497 15C9.82497 15.525 9.89997 16.0375 10.05 16.5375C10.2 17.0375 10.425 17.5125 10.725 17.9625C11 18.3375 11.3565 18.575 11.7945 18.675C12.2325 18.775 12.626 18.6875 12.975 18.4125C13.325 18.1625 13.5315 17.831 13.5945 17.418C13.6575 17.005 13.551 16.649 13.275 16.35C13.125 16.15 13.0125 15.9435 12.9375 15.7305C12.8625 15.5175 12.825 15.274 12.825 15C12.825 14.375 13.044 13.844 13.482 13.407C13.92 12.97 14.451 12.751 15.075 12.75C15.325 12.75 15.569 12.794 15.807 12.882C16.045 12.97 16.2635 13.0885 16.4625 13.2375C16.7625 13.4625 17.1 13.544 17.475 13.482C17.85 13.42 18.1625 13.2135 18.4125 12.8625C18.6625 12.5115 18.744 12.124 18.657 11.7C18.57 11.276 18.351 10.926 18 10.65C17.65 10.35 17.225 10.125 16.725 9.975C16.225 9.825 15.675 9.75 15.075 9.75ZM24 25.5C23.375 25.5 22.7625 25.5815 22.1625 25.7445C21.5625 25.9075 21 26.1635 20.475 26.5125C20.15 26.7125 19.906 26.925 19.743 27.15C19.58 27.375 19.499 27.6125 19.5 27.8625C19.5 28.0375 19.5625 28.1875 19.6875 28.3125C19.8125 28.4375 19.9625 28.5 20.1375 28.5H28.0125C28.1375 28.5 28.25 28.4375 28.35 28.3125C28.45 28.1875 28.5 28.0375 28.5 27.8625C28.5 27.6125 28.419 27.375 28.257 27.15C28.095 26.925 27.851 26.7125 27.525 26.5125C27 26.1625 26.4375 25.906 25.8375 25.743C25.2375 25.58 24.625 25.499 24 25.5ZM24 24C24.625 24 25.1565 23.7815 25.5945 23.3445C26.0325 22.9075 26.251 22.376 26.25 21.75C26.249 21.124 26.0305 20.593 25.5945 20.157C25.1585 19.721 24.627 19.502 24 19.5C23.373 19.498 22.842 19.717 22.407 20.157C21.972 20.597 21.753 21.128 21.75 21.75C21.747 22.372 21.966 22.9035 22.407 23.3445C22.848 23.7855 23.379 24.004 24 24Z" fill="white"/>
</svg>
