<svg width="26" height="30" viewBox="0 0 26 30" fill="none" xmlns="http://www.w3.org/2000/svg">
<path d="M9.50001 24C8.675 24 7.969 23.7065 7.382 23.1195C6.795 22.5325 6.50101 21.826 6.50001 21V3C6.50001 2.175 6.794 1.469 7.382 0.882C7.97 0.295 8.67601 0.001 9.50001 0H23C23.825 0 24.5315 0.294 25.1195 0.882C25.7075 1.47 26.001 2.176 26 3V21C26 21.825 25.7065 22.5315 25.1195 23.1195C24.5325 23.7075 23.826 24.001 23 24H9.50001ZM2.00001 9C1.57501 9 1.21901 8.856 0.932005 8.568C0.645005 8.28 0.501005 7.924 0.500005 7.5C0.499005 7.076 0.643005 6.72 0.932005 6.432C1.22101 6.144 1.57701 6 2.00001 6C2.42301 6 2.7795 6.144 3.0695 6.432C3.3595 6.72 3.50301 7.076 3.50001 7.5C3.49701 7.924 3.35301 8.2805 3.06801 8.5695C2.78301 8.8585 2.42701 9.002 2.00001 9ZM2.00001 14.25C1.57501 14.25 1.21901 14.106 0.932005 13.818C0.645005 13.53 0.501005 13.174 0.500005 12.75C0.499005 12.326 0.643005 11.97 0.932005 11.682C1.22101 11.394 1.57701 11.25 2.00001 11.25C2.42301 11.25 2.7795 11.394 3.0695 11.682C3.3595 11.97 3.50301 12.326 3.50001 12.75C3.49701 13.174 3.35301 13.5305 3.06801 13.8195C2.78301 14.1085 2.42701 14.252 2.00001 14.25ZM2.00001 19.5C1.57501 19.5 1.21901 19.356 0.932005 19.068C0.645005 18.78 0.501005 18.424 0.500005 18C0.499005 17.576 0.643005 17.22 0.932005 16.932C1.22101 16.644 1.57701 16.5 2.00001 16.5C2.42301 16.5 2.7795 16.644 3.0695 16.932C3.3595 17.22 3.50301 17.576 3.50001 18C3.49701 18.424 3.35301 18.7805 3.06801 19.0695C2.78301 19.3585 2.42701 19.502 2.00001 19.5ZM2.00001 24.75C1.57501 24.75 1.21901 24.606 0.932005 24.318C0.645005 24.03 0.501005 23.674 0.500005 23.25C0.499005 22.826 0.643005 22.47 0.932005 22.182C1.22101 21.894 1.57701 21.75 2.00001 21.75C2.42301 21.75 2.7795 21.894 3.0695 22.182C3.3595 22.47 3.50301 22.826 3.50001 23.25C3.49701 23.674 3.35301 24.0305 3.06801 24.3195C2.78301 24.6085 2.42701 24.752 2.00001 24.75ZM2.00001 30C1.57501 30 1.21901 29.856 0.932005 29.568C0.645005 29.28 0.501005 28.924 0.500005 28.5C0.499005 28.076 0.643005 27.72 0.932005 27.432C1.22101 27.144 1.57701 27 2.00001 27C2.42301 27 2.7795 27.144 3.0695 27.432C3.3595 27.72 3.50301 28.076 3.50001 28.5C3.49701 28.924 3.35301 29.2805 3.06801 29.5695C2.78301 29.8585 2.42701 30.002 2.00001 30ZM7.25001 30C6.82501 30 6.46901 29.856 6.18201 29.568C5.89501 29.28 5.75101 28.924 5.75001 28.5C5.74901 28.076 5.89301 27.72 6.18201 27.432C6.47101 27.144 6.827 27 7.25001 27C7.67301 27 8.02951 27.144 8.31951 27.432C8.60951 27.72 8.75301 28.076 8.75001 28.5C8.74701 28.924 8.603 29.2805 8.318 29.5695C8.033 29.8585 7.677 30.002 7.25001 30ZM12.5 30C12.075 30 11.719 29.856 11.432 29.568C11.145 29.28 11.001 28.924 11 28.5C10.999 28.076 11.143 27.72 11.432 27.432C11.721 27.144 12.077 27 12.5 27C12.923 27 13.2795 27.144 13.5695 27.432C13.8595 27.72 14.003 28.076 14 28.5C13.997 28.924 13.853 29.2805 13.568 29.5695C13.283 29.8585 12.927 30.002 12.5 30ZM17.75 30C17.325 30 16.969 29.856 16.682 29.568C16.395 29.28 16.251 28.924 16.25 28.5C16.249 28.076 16.393 27.72 16.682 27.432C16.971 27.144 17.327 27 17.75 27C18.173 27 18.5295 27.144 18.8195 27.432C19.1095 27.72 19.253 28.076 19.25 28.5C19.247 28.924 19.103 29.2805 18.818 29.5695C18.533 29.8585 18.177 30.002 17.75 30Z" fill="white"/>
</svg>
