<svg width="24" height="24" viewBox="0 0 24 24" fill="none" xmlns="http://www.w3.org/2000/svg">
<path d="M1.5 19.5V22.5V1.5V19.5ZM2.424 24C1.752 24 1.18 23.764 0.708 23.292C0.236 22.82 0 22.2485 0 21.5775V2.4225C0 1.7525 0.236 1.181 0.708 0.708C1.18 0.236 1.752 0 2.424 0H21.5775C22.2475 0 22.819 0.236 23.292 0.708C23.764 1.18 24 1.752 24 2.424V6.837H22.5V2.424C22.5 2.154 22.4135 1.9325 22.2405 1.7595C22.0675 1.5865 21.8465 1.5 21.5775 1.5H2.4225C2.1535 1.5 1.9325 1.5865 1.7595 1.7595C1.5865 1.9325 1.5 2.154 1.5 2.424V21.5775C1.5 21.8465 1.5865 22.0675 1.7595 22.2405C1.9325 22.4135 2.154 22.5 2.424 22.5H21.5775C21.8465 22.5 22.0675 22.4135 22.2405 22.2405C22.4135 22.0675 22.5 21.8465 22.5 21.5775V17.163H24V21.5775C24 22.2475 23.764 22.819 23.292 23.292C22.82 23.764 22.2485 24 21.5775 24H2.424ZM14.424 18C13.752 18 13.18 17.764 12.708 17.292C12.236 16.82 12 16.2485 12 15.5775V8.4225C12 7.7525 12.236 7.181 12.708 6.708C13.18 6.236 13.752 6 14.424 6H23.0775C23.7475 6 24.319 6.236 24.792 6.708C25.264 7.18 25.5 7.752 25.5 8.424V15.5775C25.5 16.2475 25.264 16.819 24.792 17.292C24.32 17.764 23.7485 18 23.0775 18H14.424ZM23.0775 16.5C23.3465 16.5 23.5675 16.4135 23.7405 16.2405C23.9135 16.0675 24 15.8465 24 15.5775V8.4225C24 8.1535 23.9135 7.9325 23.7405 7.7595C23.5675 7.5865 23.3465 7.5 23.0775 7.5H14.4225C14.1535 7.5 13.9325 7.5865 13.7595 7.7595C13.5865 7.9325 13.5 8.154 13.5 8.424V15.5775C13.5 15.8465 13.5865 16.0675 13.7595 16.2405C13.9325 16.4135 14.154 16.5 14.424 16.5H23.0775ZM18 14.25C18.625 14.25 19.1565 14.0315 19.5945 13.5945C20.0325 13.1575 20.251 12.626 20.25 12C20.249 11.374 20.0305 10.843 19.5945 10.407C19.1585 9.971 18.627 9.752 18 9.75C17.373 9.748 16.842 9.967 16.407 10.407C15.972 10.847 15.753 11.378 15.75 12C15.747 12.622 15.966 13.1535 16.407 13.5945C16.848 14.0355 17.379 14.254 18 14.25Z" fill="white"/>
</svg>
